<?xml version="1.0" encoding="UTF-8" standalone="no"?>
<!DOCTYPE svg PUBLIC "-//W3C//DTD SVG 1.1//EN" "http://www.w3.org/Graphics/SVG/1.1/DTD/svg11.dtd">
<svg width="100%" height="100%" viewBox="0 0 296 297" version="1.1" xmlns="http://www.w3.org/2000/svg" xmlns:xlink="http://www.w3.org/1999/xlink" xml:space="preserve" xmlns:serif="http://www.serif.com/" style="fill-rule:evenodd;clip-rule:evenodd;stroke-linejoin:round;stroke-miterlimit:2;">
    <g transform="matrix(1,0,0,1,-868,-2191)">
        <g id="ginko-blocks_light" transform="matrix(0.500476,0,0,0.500476,1614.42,1624.29)">
            <rect x="-1490.89" y="1133.34" width="590.662" height="590.662" style="fill:none;"/>
            <g transform="matrix(2.6539e-16,4.33414,-0.698548,4.27737e-17,-842.908,-2519.69)">
                <path d="M891.103,593.909C891.103,615.033 888.343,632.157 884.939,632.157C879.406,632.157 871.328,632.157 865.79,632.157C862.376,632.157 859.608,614.986 859.608,593.803C859.608,545.473 859.608,462.947 859.608,415.019C859.608,405.071 860.245,395.531 861.379,388.497C862.513,381.463 864.05,377.511 865.654,377.511C871.305,377.511 879.688,377.511 885.27,377.511C888.491,377.511 891.103,393.716 891.103,413.705L891.103,593.909ZM882.059,413.517L868.682,413.517C866.868,413.517 865.384,423.339 865.384,435.344L865.384,460.843C865.384,472.848 866.868,482.67 868.682,482.67L880.399,482.67C880.982,482.67 881.454,485.601 881.454,489.216C881.454,491.702 881.454,494.383 881.454,496.253C881.454,497.591 881.629,498.676 881.845,498.676C881.962,498.676 882.059,498.676 882.059,498.676C883.873,498.676 885.357,488.854 885.357,476.849L885.357,435.344C885.357,423.339 883.873,413.517 882.059,413.517ZM869.286,512.533C869.286,511.195 869.111,510.111 868.896,510.111C868.779,510.111 868.682,510.111 868.682,510.111C866.868,510.111 865.384,519.933 865.384,531.937L865.384,574.611C865.384,586.616 866.868,596.438 868.682,596.438L882.059,596.438C883.873,596.438 885.357,586.616 885.357,574.611L885.357,547.944C885.357,535.939 883.873,526.117 882.059,526.117L870.292,526.117C870.025,526.117 869.769,525.46 869.581,524.29C869.392,523.12 869.286,521.533 869.286,519.879C869.286,517.308 869.286,514.482 869.286,512.533Z" style="fill:rgb(135,40,94);stroke:rgb(135,40,94);stroke-width:0.64px;"/>
            </g>
            <g transform="matrix(1.03659,0,0,0.460045,-1831.74,914.399)">
                <path d="M475.293,1161.17L512.815,1161.17L512.815,1175.45L505.348,1176.87L503.34,1180.83L503.34,1248.41C498.279,1252.37 493.364,1255.34 488.595,1257.31C483.826,1259.29 479.141,1260.28 474.54,1260.28C461.112,1260.28 450.215,1250.86 441.849,1232.01C433.482,1213.15 429.299,1188.6 429.299,1158.35C429.299,1128.37 433.577,1104.36 442.131,1086.31C450.685,1068.26 462.032,1059.24 476.171,1059.24C480.438,1059.24 484.84,1060.04 489.379,1061.64C493.918,1063.24 498.571,1065.65 503.34,1068.85L503.34,1118.05L493.928,1118.05L491.481,1087.37L489.536,1082.14C487.863,1080.54 486.148,1079.36 484.391,1078.61C482.634,1077.85 480.793,1077.47 478.869,1077.47C469.248,1077.47 461.687,1084.66 456.186,1099.04C450.685,1113.41 447.935,1133.18 447.935,1158.35C447.935,1184.17 450.748,1204.37 456.374,1218.93C462.001,1233.49 469.813,1240.77 479.81,1240.77C480.48,1240.77 481.421,1240.7 482.634,1240.56C483.847,1240.42 485.248,1240.21 486.838,1239.92L486.838,1180.83L484.83,1176.87L475.293,1175.45L475.293,1161.17Z" style="fill:rgb(31,31,31);fill-rule:nonzero;"/>
                <path d="M544.025,1113.1L550.237,1113.1L550.237,1238.23L552.119,1242.61L559.335,1243.74L559.335,1256.75L525.64,1256.75L525.64,1243.74L532.605,1242.61L534.425,1238.23L534.425,1138.27L525.954,1138.27L525.954,1126.68L544.025,1113.1ZM542.645,1047.08C545.447,1047.08 547.748,1049.08 549.547,1053.09C551.345,1057.09 552.245,1062.16 552.245,1068.29C552.245,1074.69 551.356,1079.95 549.578,1084.05C547.8,1088.15 545.531,1090.2 542.77,1090.2C540.093,1090.2 537.855,1088.17 536.056,1084.12C534.257,1080.07 533.358,1074.98 533.358,1068.85C533.358,1062.63 534.247,1057.45 536.025,1053.3C537.803,1049.15 540.009,1047.08 542.645,1047.08Z" style="fill:rgb(31,31,31);fill-rule:nonzero;"/>
                <path d="M571.408,1256.75L571.408,1243.74L577.996,1242.61L579.816,1238.23L579.816,1138.27L571.031,1138.27L571.031,1126.68L589.541,1113.1L595.753,1113.1L595.753,1130.21C600.647,1124.09 604.872,1119.61 608.428,1116.78C611.984,1113.95 615.079,1112.54 617.714,1112.54C623.571,1112.54 627.942,1116.5 630.828,1124.41C633.715,1132.33 635.158,1144.4 635.158,1160.61L635.158,1238.23L636.852,1242.61L643.629,1243.74L643.629,1256.75L612.193,1256.75L612.193,1243.74L617.714,1242.61L619.471,1238.23L619.471,1168.95C619.471,1158.2 618.551,1150.31 616.71,1145.27C614.87,1140.23 611.942,1137.7 607.926,1137.7C606.378,1137.7 604.59,1138.13 602.561,1138.98C600.532,1139.83 598.263,1141.05 595.753,1142.65L595.753,1238.23L597.51,1242.61L603.157,1243.74L603.157,1256.75L571.408,1256.75Z" style="fill:rgb(31,31,31);fill-rule:nonzero;"/>
                <path d="M654.823,1256.75L654.823,1244.02L661.537,1242.61L663.293,1238.23L663.293,1067.72L653.944,1067.72L653.944,1056.41L673.709,1042.84L679.106,1042.84L679.106,1181.82L681.929,1181.82L700.314,1133.46L699.435,1130.21L693.788,1128.8L693.788,1116.07L720.016,1116.07L720.016,1128.8L711.608,1131.06L696.988,1167.82L717.444,1242.61L724.973,1244.02L724.973,1256.75L700.314,1256.75L700.314,1245.44L685.443,1191.29L679.106,1191.29L679.106,1238.79L680.8,1242.89L687.2,1244.02L687.2,1256.75L654.823,1256.75Z" style="fill:rgb(31,31,31);fill-rule:nonzero;"/>
                <path d="M766.662,1127.67C761.977,1127.67 758.317,1132.71 755.681,1142.79C753.046,1152.88 751.728,1167.02 751.728,1185.21C751.728,1203.68 753.035,1218.06 755.65,1228.33C758.264,1238.6 761.893,1243.74 766.536,1243.74C771.389,1243.74 775.133,1238.75 777.768,1228.76C780.403,1218.76 781.721,1204.53 781.721,1186.06C781.721,1167.68 780.393,1153.35 777.737,1143.08C775.08,1132.8 771.389,1127.67 766.662,1127.67ZM767.164,1112.26C777.036,1112.26 784.879,1118.97 790.694,1132.4C796.508,1145.83 799.416,1164 799.416,1186.9C799.416,1208.58 796.383,1226.02 790.317,1239.22C784.252,1252.41 776.199,1259.01 766.16,1259.01C756.497,1259.01 748.706,1252.34 742.787,1239.01C736.868,1225.67 733.908,1208.11 733.908,1186.34C733.908,1164 736.941,1146.07 743.007,1132.54C749.072,1119.02 757.124,1112.26 767.164,1112.26Z" style="fill:rgb(31,31,31);fill-rule:nonzero;"/>
            </g>
            <g transform="matrix(1.12873,0,0,0.460045,-1888.29,1044.06)">
                <path d="M472.493,1241.48C473.914,1241.76 475.278,1241.97 476.584,1242.12C477.89,1242.26 479.158,1242.33 480.387,1242.33C488.455,1242.33 494.323,1239.05 497.992,1232.5C501.66,1225.95 503.495,1215.51 503.495,1201.18C503.495,1188.08 501.891,1178.33 498.683,1171.92C495.475,1165.51 490.587,1162.31 484.018,1162.31C482.481,1162.31 480.743,1162.47 478.803,1162.8C476.863,1163.13 474.74,1163.58 472.435,1164.14L472.493,1241.48ZM472.493,1149.58C472.992,1149.67 473.559,1149.75 474.193,1149.79C474.827,1149.84 475.739,1149.86 476.93,1149.86C484.383,1149.86 489.847,1146.63 493.324,1140.18C496.801,1133.72 498.539,1123.57 498.539,1109.71C498.539,1097.93 496.926,1089.09 493.699,1083.2C490.472,1077.31 485.631,1074.37 479.177,1074.37C478.601,1074.37 477.573,1074.48 476.094,1074.72C474.615,1074.95 473.396,1075.12 472.435,1075.21L472.493,1149.58ZM453.131,1061.64L483.211,1061.64C492.316,1061.64 499.096,1065.51 503.552,1073.23C508.009,1080.96 510.237,1092.75 510.237,1108.58C510.237,1119.51 508.806,1128.68 505.944,1136.08C503.082,1143.48 498.808,1149.06 493.122,1152.83C500.037,1153.02 505.425,1157.19 509.286,1165.35C513.147,1173.5 515.077,1184.79 515.077,1199.21C515.077,1217.59 512.436,1231.63 507.154,1241.34C501.872,1251.05 494.236,1255.9 484.248,1255.9L453.131,1255.9L453.131,1244.02L459.816,1242.61L461.832,1238.51L461.832,1079.03L459.816,1074.93L453.131,1073.23L453.131,1061.64Z" style="fill:rgb(129,129,129);fill-rule:nonzero;"/>
                <path d="M523.778,1255.9L523.778,1245.44L530.751,1244.02L532.768,1239.36L532.768,1062.21L523.663,1062.21L523.663,1053.16L538.069,1042.84L542.564,1042.84L542.564,1239.36L544.696,1244.02L551.438,1245.44L551.438,1255.9L523.778,1255.9Z" style="fill:rgb(129,129,129);fill-rule:nonzero;"/>
                <path d="M585.552,1126.11C580.634,1126.11 576.687,1131.55 573.71,1142.44C570.733,1153.33 569.244,1167.87 569.244,1186.06C569.244,1204.25 570.742,1218.79 573.739,1229.67C576.735,1240.56 580.673,1246 585.552,1246C590.507,1246 594.483,1240.58 597.48,1229.74C600.476,1218.9 601.975,1204.34 601.975,1186.06C601.975,1167.96 600.467,1153.44 597.451,1142.51C594.435,1131.58 590.469,1126.11 585.552,1126.11ZM585.552,1113.67C593.581,1113.67 600.169,1120.43 605.317,1133.96C610.465,1147.48 613.039,1164.85 613.039,1186.06C613.039,1207.27 610.455,1224.63 605.288,1238.16C600.121,1251.68 593.542,1258.44 585.552,1258.44C577.561,1258.44 571.002,1251.71 565.873,1238.23C560.744,1224.75 558.18,1207.36 558.18,1186.06C558.18,1164.76 560.725,1147.37 565.815,1133.89C570.906,1120.41 577.484,1113.67 585.552,1113.67Z" style="fill:rgb(129,129,129);fill-rule:nonzero;"/>
                <path d="M667.551,1243.74C664.247,1248.45 661.001,1251.99 657.813,1254.35C654.624,1256.7 651.474,1257.88 648.362,1257.88C640.372,1257.88 633.947,1251.31 629.087,1238.16C624.227,1225.01 621.797,1207.64 621.797,1186.06C621.797,1164.66 624.381,1147.25 629.548,1133.82C634.715,1120.38 641.447,1113.67 649.745,1113.67C655.239,1113.67 659.561,1116.24 662.711,1121.38C665.861,1126.51 667.436,1133.42 667.436,1142.09C667.436,1146.71 666.84,1150.43 665.65,1153.26C664.459,1156.08 662.864,1157.5 660.867,1157.5C659.983,1157.5 659.1,1157.12 658.216,1156.37C657.332,1155.61 656.449,1154.53 655.565,1153.12L655.565,1129.36C654.643,1128.04 653.702,1127.03 652.742,1126.32C651.781,1125.62 650.821,1125.26 649.86,1125.26C644.636,1125.26 640.439,1130.61 637.27,1141.31C634.1,1152.01 632.516,1166.26 632.516,1184.08C632.516,1201.7 634.311,1215.58 637.903,1225.71C641.495,1235.85 646.384,1240.91 652.569,1240.91C655.143,1240.91 657.659,1239.9 660.118,1237.87C662.576,1235.85 665.054,1232.76 667.551,1228.61L667.551,1243.74Z" style="fill:rgb(129,129,129);fill-rule:nonzero;"/>
                <path d="M672.968,1255.9L672.968,1245.44L679.364,1244.02L681.381,1239.36L681.381,1062.21L672.276,1062.21L672.276,1053.16L686.682,1042.84L691.177,1042.84L691.177,1182.1L693.424,1182.1L711.461,1132.62L710.654,1128.52L705.295,1127.38L705.295,1116.64L727.711,1116.64L727.711,1127.38L720.162,1129.65L704.027,1171.64L724.772,1243.46L732.321,1244.87L732.321,1255.9L713.939,1255.9L713.939,1246.29L697.977,1190.16L691.177,1190.16L691.177,1239.36L693.252,1244.02L698.841,1245.44L698.841,1255.9L672.968,1255.9Z" style="fill:rgb(129,129,129);fill-rule:nonzero;"/>
                <path d="M771.678,1120.03L771.678,1152.83L765.858,1152.83L764.936,1132.33C763.361,1130.26 761.863,1128.7 760.441,1127.67C759.02,1126.63 757.599,1126.11 756.177,1126.11C753.104,1126.11 750.703,1127.95 748.974,1131.62C747.246,1135.3 746.381,1140.44 746.381,1147.04C746.381,1152.41 747.073,1156.98 748.456,1160.75C749.839,1164.52 752.489,1168.71 756.408,1173.33C757.022,1174.09 757.964,1175.17 759.231,1176.59C763.688,1181.58 766.915,1186.1 768.912,1190.16C770.372,1192.99 771.486,1196.54 772.254,1200.83C773.023,1205.12 773.407,1209.86 773.407,1215.04C773.407,1228.61 771.457,1239.24 767.558,1246.92C763.659,1254.6 758.252,1258.44 751.337,1258.44C748.494,1258.44 745.776,1257.95 743.183,1256.96C740.59,1255.97 738.199,1254.44 736.009,1252.37L736.009,1214.76L741.656,1214.76L743.097,1239.36C744.748,1241.71 746.41,1243.46 748.081,1244.59C749.752,1245.72 751.433,1246.29 753.123,1246.29C756.465,1246.29 759.145,1244.14 761.162,1239.85C763.179,1235.57 764.187,1229.93 764.187,1222.96C764.187,1217.11 763.496,1212.28 762.113,1208.47C760.73,1204.65 757.426,1199.82 752.201,1193.98C746.285,1187.47 742.261,1181.34 740.129,1175.6C737.997,1169.85 736.931,1162.73 736.931,1154.25C736.931,1141.33 738.756,1131.34 742.405,1124.27C746.055,1117.2 751.202,1113.67 757.848,1113.67C760.499,1113.67 762.967,1114.21 765.253,1115.3C767.539,1116.38 769.681,1117.96 771.678,1120.03Z" style="fill:rgb(129,129,129);fill-rule:nonzero;"/>
            </g>
        </g>
    </g>
</svg>
