<?xml version="1.0" encoding="UTF-8" standalone="no"?>
<!DOCTYPE svg PUBLIC "-//W3C//DTD SVG 1.1//EN" "http://www.w3.org/Graphics/SVG/1.1/DTD/svg11.dtd">
<svg width="100%" height="100%" viewBox="0 0 296 296" version="1.1" xmlns="http://www.w3.org/2000/svg" xmlns:xlink="http://www.w3.org/1999/xlink" xml:space="preserve" xmlns:serif="http://www.serif.com/" style="fill-rule:evenodd;clip-rule:evenodd;stroke-linejoin:round;stroke-miterlimit:2;">
    <g transform="matrix(1,0,0,1,0,-1710)">
        <g id="Artboard3" transform="matrix(0.500476,0,0,0.500476,746.155,1143.16)">
            <rect x="-1490.89" y="1133.34" width="590.662" height="590.662" style="fill:none;"/>
            <g transform="matrix(1,0,0,1,-2.27374e-13,32.9647)">
                <g transform="matrix(2.6539e-16,4.33414,-0.698548,4.27737e-17,-842.908,-2552.66)">
                    <path d="M891.103,593.909C891.103,615.033 888.343,632.157 884.939,632.157C879.406,632.157 871.328,632.157 865.79,632.157C862.376,632.157 859.608,614.986 859.608,593.803C859.608,545.473 859.608,462.947 859.608,415.019C859.608,405.071 860.245,395.531 861.379,388.497C862.513,381.463 864.05,377.511 865.654,377.511C871.305,377.511 879.688,377.511 885.27,377.511C888.491,377.511 891.103,393.716 891.103,413.705L891.103,593.909ZM882.059,413.517L868.682,413.517C866.868,413.517 865.384,423.339 865.384,435.344L865.384,460.843C865.384,472.848 866.868,482.67 868.682,482.67L880.399,482.67C880.982,482.67 881.454,485.601 881.454,489.216C881.454,491.702 881.454,494.383 881.454,496.253C881.454,497.591 881.629,498.676 881.845,498.676C881.962,498.676 882.059,498.676 882.059,498.676C883.873,498.676 885.357,488.854 885.357,476.849L885.357,435.344C885.357,423.339 883.873,413.517 882.059,413.517ZM869.286,512.533C869.286,511.195 869.111,510.111 868.896,510.111C868.779,510.111 868.682,510.111 868.682,510.111C866.868,510.111 865.384,519.933 865.384,531.937L865.384,574.611C865.384,586.616 866.868,596.438 868.682,596.438L882.059,596.438C883.873,596.438 885.357,586.616 885.357,574.611L885.357,547.944C885.357,535.939 883.873,526.117 882.059,526.117L870.292,526.117C870.025,526.117 869.769,525.46 869.581,524.29C869.392,523.12 869.286,521.533 869.286,519.879C869.286,517.308 869.286,514.482 869.286,512.533Z" style="fill:rgb(135,40,94);stroke:rgb(135,40,94);stroke-width:0.64px;"/>
                </g>
                <g transform="matrix(1.9981,0,0,1.9981,-2574.58,-706.518)">
                    <text x="602.483px" y="1092.09px" style="font-family:'Charter-Bold', 'Charter', serif;font-weight:700;font-size:66.667px;fill:white;">G<tspan x="647.813px 666.158px 704.49px 739.372px " y="1092.09px 1092.09px 1092.09px 1092.09px ">inko</tspan></text>
                    <g transform="matrix(66.6667,0,0,66.6667,784.677,1162.92)">
                    </g>
                    <text x="595.654px" y="1162.92px" style="font-family:'Charter-Bold', 'Charter', serif;font-weight:700;font-size:66.667px;fill:white;">B<tspan x="635.516px 653.796px 690.272px 720.011px 754.892px " y="1162.92px 1162.92px 1162.92px 1162.92px 1162.92px ">locks</tspan></text>
                </g>
            </g>
        </g>
    </g>
</svg>
